#!OML:ASF H:\Terrain\Patient Classification 1\Walking\steve\steve.ASF
:FULLY-SPECIFIED
:DEGREES
16
root 7.1103 15.2991 -38.0349 8.26434 -8.71754 -4.07877
lowerback -0.349965 4.72834 5.87542
upperback -3.40723 6.4383 1.59234
thorax -2.86886 3.07797 -1.73437
lowerneck -6.26054 -0.140784 -1.52348
upperneck 9.38703 0.192989 -2.17592
head 4.20407 -0.0639355 -0.447339
rclavicle -2.20946e-014 -1.98785e-015
rhumerus -8.2305 7.57874 -86.0985
rradius 40.8482
rwrist -12.3954
rhand -21.2323 -34.3755
rfingers 7.12502
rthumb 5.15008 -64.2929
lclavicle -2.20946e-014 -1.98785e-015
lhumerus -59.2033 15.9127 69.3376
lradius 14.0518
lwrist -10.3977
lhand -17.974 -15.5948
lfingers 7.12502
lthumb 8.29543 14.2223
rfemur 1.51892 -4.51481 25.2723
rtibia 20.7381
rfoot -9.74783 27.3382
rtoes 0.020278
lfemur -36.9351 1.1557 -10.7735
ltibia 12.9249
lfoot -17.5839 12.6485
ltoes -13.9726
17
root 7.1258 15.2852 -37.7984 8.41677 -9.29626 -3.65006
lowerback -0.52701 4.93798 5.39973
upperback -3.4506 6.69405 1.32372
thorax -2.81526 3.21633 -1.73634
lowerneck -5.10773 -0.351146 -0.554181
upperneck 8.01446 -0.146654 -3.19348
head 3.49133 -0.219572 -0.957859
rclavicle 1.17129e-013 1.86858e-014
rhumerus -7.12679 7.07098 -86.0725
rradius 41.1006
rwrist -11.5076
rhand -21.5852 -35.9633
rfingers 7.12502
rthumb 4.80933 -65.8887
lclavicle 1.17129e-013 1.86858e-014
lhumerus -60.9577 18.8568 63.8723
lradius 12.8848
lwrist -15.2042
lhand -17.654 -17.1086
lfingers 7.12502
lthumb 8.60424 12.6961
rfemur 2.41647 -4.31069 24.3524
rtibia 20.2336
rfoot -9.10751 27.7353
rtoes -1.54787
lfemur -36.1766 1.88399 -11.5992
ltibia 9.50071
lfoot -17.8052 11.1902
ltoes -7.88661
18
root 7.14066 15.2599 -37.5658 8.62138 -9.69739 -3.90822
lowerback -0.753744 5.18666 5.66471
upperback -3.34014 7.00242 1.18763
thorax -2.50625 3.37219 -1.98748
lowerneck -6.62 -0.234531 -1.40658
upperneck 9.29853 0.0336709 -1.90894
head 4.2432 -0.126431 -0.38808
rclavicle 4.9749e-014 4.53229e-014
rhumerus -5.89168 6.6982 -85.9476
rradius 41.5446
rwrist -11.0524
rhand -20.7189 -36.6798
rfingers 7.12502
rthumb 5.64572 -66.5846
lclavicle 4.9749e-014 4.53229e-014
lhumerus -63.051 23.0976 55.8769
lradius 10.8536
lwrist -22.8943
lhand -16.0994 -20.4122
lfingers 7.12502
lthumb 10.1043 9.32519
rfemur 3.2789 -3.95434 24.2772
rtibia 19.7201
rfoot -8.46064 27.7852
rtoes -3.40074
lfemur -35.568 2.71057 -11.4865
ltibia 6.33744
lfoot -16.7927 11.2711
ltoes -9.35245
19
root 7.15965 15.2272 -37.3329 8.78422 -9.79311 -4.57121
lowerback -1.29192 5.32348 6.54874
upperback -2.81918 7.11651 1.14714
thorax -1.54995 3.44731 -2.4155
lowerneck -8.22164 -0.074516 -2.04451
upperneck 10.3392 0.269402 -0.899507
head 4.44413 0.00109773 0.0731421
rclavicle 3.43773e-014 1.55052e-014
rhumerus -4.16169 7.08586 -85.6566
rradius 42.1515
rwrist -11.7159
rhand -19.7158 -39.5608
rfingers 7.12502
rthumb 6.61416 -69.4375
lclavicle 3.43773e-014 1.55052e-014
lhumerus -64.3721 25.8138 50.8933
lradius 10.0193
lwrist -27.3829
lhand -15.5028 -20.776
lfingers 7.12502
lthumb 10.6798 8.93255
rfemur 4.37282 -3.50989 24.7117
rtibia 18.9736
rfoot -7.36517 27.7191
rtoes -2.89065
lfemur -35.4843 3.23012 -10.9998
ltibia 4.54012
lfoot -15.4336 11.5306
ltoes -13.5733
20
root 7.18174 15.2051 -37.092 8.71399 -9.81334 -5.05551
lowerback -0.576851 5.2287 6.87034
upperback -3.17887 7.07723 1.34523
thorax -2.31654 3.38965 -2.48377
lowerneck -8.75839 0.153107 -2.02163
upperneck 11.4637 0.601978 -0.873663
head 4.8784 0.153335 0.100044
rclavicle -1.93504e-014 -1.78906e-014
rhumerus -3.92203 7.91227 -85.524
rradius 42.5326
rwrist -12.2836
rhand -19.9499 -38.5619
rfingers 7.12502
rthumb 6.38822 -68.4455
lclavicle -1.93504e-014 -1.78906e-014
lhumerus -65.9582 24.9457 50.5986
lradius 10.8549
lwrist -26.2372
lhand -17.2308 -14.9421
lfingers 7.12502
lthumb 9.01265 14.8453
rfemur 5.81182 -3.54146 24.7933
rtibia 18.105
rfoot -5.75364 27.9994
rtoes -1.66834
lfemur -35.6145 3.56562 -10.738
ltibia 4.24987
lfoot -14.624 10.7601
ltoes -15.4242
21
root 7.20234 15.1721 -36.8443 8.75494 -9.8404 -5.42048
lowerback -0.619426 5.20467 7.19622
upperback -3.18589 7.04508 1.3944
thorax -2.2729 3.36751 -2.60546
lowerneck -9.11711 0.205849 -1.60548
upperneck 11.83 0.674164 -1.21996
head 5.05414 0.179125 -0.069471
rclavicle -3.4427e-014 -3.73715e-014
rhumerus -3.17391 8.0511 -85.5207
rradius 42.6103
rwrist -12.2184
rhand -21.2615 -37.1092
rfingers 7.12502
rthumb 5.1219 -67.0273
lclavicle -3.4427e-014 -3.73715e-014
lhumerus -67.4365 25.3357 48.5687
lradius 11.2039
lwrist -26.8689
lhand -17.5249 -11.1419
lfingers 7.12502
lthumb 8.72883 18.6576
rfemur 7.25595 -1.63829 25.2908
rtibia 17.2207
rfoot -5.78433 26.3395
rtoes -3.24086
lfemur -36.4974 3.81872 -10.7222
ltibia 5.48733
lfoot -14.2085 9.93157
ltoes -18.2485
22
root 7.21971 15.138 -36.5972 8.80669 -9.76136 -5.46171
lowerback -1.04607 5.18531 7.25249
upperback -2.96154 6.96369 1.2558
thorax -1.78439 3.34673 -2.72142
lowerneck -9.03168 0.154997 -1.59747
upperneck 11.2151 0.561807 -0.985795
head 4.84871 0.146016 -0.00642458
rclavicle -2.34814e-014 -1.11319e-014
rhumerus -2.4564 7.87615 -85.5149
rradius 43.047
rwrist -12.17
rhand -22.0562 -36.4714
rfingers 7.12502
rthumb 4.35448 -66.4066
lclavicle -2.34814e-014 -1.11319e-014
lhumerus -69.0505 26.9916 44.5062
lradius 10.8079
lwrist -29.5538
lhand -17.2953 -10.7848
lfingers 7.12502
lthumb 8.95043 19.0053
rfemur 8.39231 -1.18657 25.1799
rtibia 16.6305
rfoot -4.73315 25.7449
rtoes -4.73978
lfemur -37.3839 3.91457 -11.0328
ltibia 6.88198
lfoot -14.4339 8.69938
ltoes -17.2177
23
root 7.23395 15.1256 -36.3489 8.5661 -9.68099 -5.16496
lowerback -1.0506 5.20921 6.96374
upperback -2.76424 6.98081 1.01967
thorax -1.57747 3.37082 -2.7934
lowerneck -9.07037 0.0229333 -1.78828
upperneck 10.8229 0.345523 -0.499642
head 4.73322 0.0660673 0.160167
rclavicle 3.33337e-014 -2.127e-014
rhumerus -2.01952 7.73958 -85.224
rradius 43.7163
rwrist -12.5886
rhand -22.1415 -36.4369
rfingers 7.12502
rthumb 4.27211 -66.3738
lclavicle 3.33337e-014 -2.127e-014
lhumerus -70.8994 28.5089 40.0784
lradius 10.4682
lwrist -32.9629
lhand -17.6168 -10.8566
lfingers 7.12502
lthumb 8.64011 18.9466
rfemur 9.48139 -0.948672 24.705
rtibia 16.6097
rfoot -4.63178 25.2468
rtoes -9.82357
lfemur -37.4086 3.90542 -11.6813
ltibia 7.95414
lfoot -14.4968 7.34978
ltoes -13.0484
